<svg data-v-423bf9ae="" xmlns="http://www.w3.org/2000/svg" viewBox="0 0 128.4044428127198 60" class="font"><!----><!----><!----><g data-v-423bf9ae="" id="8cd70048-2b1a-4526-aa3f-f4307398095d" fill="black" transform="matrix(5.5658623541953265,0,0,5.5658623541953265,-8.571429256426171,-12.467532441733468)"><path d="M10.89 2.38L6.34 12.53L1.79 2.38L1.54 2.38L1.54 12.88L1.82 12.88L1.82 3.03L6.21 12.88L6.44 12.88L10.85 3.03L10.85 12.88L11.13 12.88L11.13 2.38ZM19.22 7.54L19.22 7.82L24.33 7.82C24.22 10.57 21.98 12.74 19.22 12.74C16.40 12.74 14.11 10.46 14.11 7.63C14.11 4.79 16.40 2.52 19.22 2.52C21.11 2.52 22.75 3.54 23.63 5.04L23.87 4.90C22.94 3.31 21.21 2.24 19.22 2.24C16.24 2.24 13.83 4.65 13.83 7.63C13.83 10.61 16.24 13.02 19.22 13.02C22.21 13.02 24.61 10.61 24.61 7.63L24.61 7.54Z"></path></g><!----><!----></svg>