<svg xmlns="http://www.w3.org/2000/svg" viewBox="0 0 233.249 60" class="font"><path d="M59.981 14.528l4.784 43.11c.059.945.354 1.299 1.24 1.299h4.075c.945 0 1.299-.413 1.24-1.3L64.35.71C64.292.177 64.174 0 63.584 0h-.473c-.354 0-.59.06-1.004.709l-26.456 50.02L9.194.708C8.78.059 8.544 0 8.19 0h-.473c-.59 0-.65.177-.767.709L.04 57.638c-.177.886.236 1.299 1.122 1.299h4.075c1.004 0 1.181-.354 1.3-1.3l4.9-42.991L33.762 58.7c.59.827.886 1.299 1.594 1.299h.65c.65 0 1.063-.472 1.476-1.3zm50.433-8.74c6.674 0 13.288 3.366 17.126 7.204.827.709 1.3.65 1.89 0l2.48-2.775c.65-.71.886-1.063.178-1.772C126.536 3.189 118.446 0 110.414 0 94.115 0 80.946 13.524 80.946 30s13.17 30 29.468 30c8.09 0 16.772-3.307 22.205-8.681.945-.886 1.358-1.654 1.358-2.953V30.06c0-.886-.236-1.3-1.24-1.3h-21.083c-1.003 0-1.358.355-1.358 1.3v3.189c0 .945.355 1.24 1.358 1.24h15.768v13.347c-3.957 3.602-9.744 6.378-17.008 6.378C97.481 54.213 87.56 42.402 87.56 30c0-12.46 9.921-24.213 22.854-24.213zm58.288 51.85c0 .945.295 1.299 1.299 1.299h3.957c1.004 0 1.24-.354 1.24-1.3V2.363c0-.945-.236-1.299-1.24-1.299H170c-1.004 0-1.3.354-1.3 1.3zm17.185-56.575c-1.004 0-1.3.354-1.3 1.3v3.306c0 1.004.237 1.359 1.3 1.359h19.783v50.61c0 .945.236 1.299 1.3 1.299h3.956c1.004 0 1.24-.354 1.24-1.3V7.028h19.843c1.004 0 1.24-.354 1.24-1.358V2.362c0-.945-.177-1.299-1.24-1.299z" fill="#fff"/></svg>