<svg data-v-423bf9ae="" xmlns="http://www.w3.org/2000/svg" viewBox="0 0 300 90" class="iconLeftSlogan"><!----><!----><!----><g data-v-423bf9ae="" id="d98aa384-a92c-4436-9e3a-78a6d930d9a5" fill="white" transform="matrix(5.9055118997155125,0,0,5.9055118997155125,60.577523914222596,-19.19291367407542)"><path d="M11.09 5.71L11.90 13.01C11.91 13.17 11.96 13.23 12.11 13.23L12.80 13.23C12.96 13.23 13.02 13.16 13.01 13.01L11.83 3.37C11.82 3.28 11.80 3.25 11.70 3.25L11.62 3.25C11.56 3.25 11.52 3.26 11.45 3.37L6.97 11.84L2.49 3.37C2.42 3.26 2.38 3.25 2.32 3.25L2.24 3.25C2.14 3.25 2.13 3.28 2.11 3.37L0.94 13.01C0.91 13.16 0.98 13.23 1.13 13.23L1.82 13.23C1.99 13.23 2.02 13.17 2.04 13.01L2.87 5.73L6.65 13.19C6.75 13.33 6.80 13.41 6.92 13.41L7.03 13.41C7.14 13.41 7.21 13.33 7.28 13.19ZM19.63 4.23C20.76 4.23 21.88 4.80 22.53 5.45C22.67 5.57 22.75 5.56 22.85 5.45L23.27 4.98C23.38 4.86 23.42 4.80 23.30 4.68C22.36 3.79 20.99 3.25 19.63 3.25C16.87 3.25 14.64 5.54 14.64 8.33C14.64 11.12 16.87 13.41 19.63 13.41C21 13.41 22.47 12.85 23.39 11.94C23.55 11.79 23.62 11.66 23.62 11.44L23.62 8.34C23.62 8.19 23.58 8.12 23.41 8.12L19.84 8.12C19.67 8.12 19.61 8.18 19.61 8.34L19.61 8.88C19.61 9.04 19.67 9.09 19.84 9.09L22.51 9.09L22.51 11.35C21.84 11.96 20.86 12.43 19.63 12.43C17.44 12.43 15.76 10.43 15.76 8.33C15.76 6.22 17.44 4.23 19.63 4.23ZM29.50 13.01C29.50 13.17 29.55 13.23 29.72 13.23L30.39 13.23C30.56 13.23 30.60 13.17 30.60 13.01L30.60 3.65C30.60 3.49 30.56 3.43 30.39 3.43L29.72 3.43C29.55 3.43 29.50 3.49 29.50 3.65ZM32.41 3.43C32.24 3.43 32.19 3.49 32.19 3.65L32.19 4.21C32.19 4.38 32.23 4.44 32.41 4.44L35.76 4.44L35.76 13.01C35.76 13.17 35.80 13.23 35.98 13.23L36.65 13.23C36.82 13.23 36.86 13.17 36.86 13.01L36.86 4.44L40.22 4.44C40.39 4.44 40.43 4.38 40.43 4.21L40.43 3.65C40.43 3.49 40.40 3.43 40.22 3.43Z"></path></g><!----><g data-v-423bf9ae="" id="9595a3fe-b565-4ae0-9fa8-8a46ca29ee5b" transform="matrix(2.8125,0,0,2.8125,-21.194407999515533,0)" stroke="none" fill="white"><path d="M18.396 26.495L7.807 15.905 18.432 5.28l.707.707-9.918 9.918 9.882 9.883z"></path><path d="M23.194 1v4.194H19V1h4.194m1-1H18v6.194h6.194V0zM23.194 26.806V31H19v-4.194h4.194m1-1H18V32h6.194v-6.194z"></path></g><!----><g data-v-423bf9ae="" id="5604a51f-a8eb-40a9-aa83-1701a44445f6" fill="white" transform="matrix(0.35115951636902426,0,0,0.35115951636902426,61.958805085438826,59.13965918998292)"><path d="M12.14 9.74L11.76 9.90C12.39 11.77 13.44 12.71 14.91 12.71C15.82 12.71 16.52 12.45 16.98 11.93C17.45 11.41 17.68 10.77 17.68 10.01C17.68 9.66 17.62 9.35 17.51 9.06C17.39 8.78 17.26 8.55 17.11 8.37C16.97 8.19 16.77 8.02 16.51 7.86C16.24 7.70 16.03 7.58 15.87 7.50C15.71 7.43 15.48 7.34 15.20 7.22C15.17 7.21 15.05 7.16 14.85 7.08C14.66 7.01 14.54 6.96 14.49 6.94C14.44 6.91 14.34 6.87 14.17 6.80C14 6.73 13.89 6.67 13.84 6.64C13.79 6.60 13.70 6.54 13.57 6.45C13.44 6.37 13.35 6.30 13.30 6.24C13.25 6.18 13.19 6.10 13.10 6.00C13.02 5.90 12.96 5.80 12.93 5.70C12.90 5.61 12.87 5.50 12.84 5.38C12.81 5.25 12.80 5.12 12.80 4.98C12.80 4.41 12.99 3.95 13.39 3.62C13.79 3.29 14.28 3.12 14.87 3.12C16.00 3.12 16.78 3.77 17.22 5.07L17.63 4.90C17.42 4.23 17.08 3.69 16.62 3.29C16.15 2.89 15.57 2.69 14.88 2.69C14.19 2.69 13.59 2.90 13.08 3.33C12.57 3.76 12.32 4.33 12.32 5.04C12.32 5.39 12.39 5.71 12.54 5.99C12.68 6.27 12.90 6.51 13.18 6.71C13.47 6.91 13.72 7.07 13.95 7.17C14.18 7.28 14.48 7.41 14.84 7.55C15.12 7.65 15.31 7.72 15.41 7.77C15.52 7.82 15.69 7.90 15.93 8.02C16.17 8.13 16.35 8.24 16.46 8.34C16.56 8.45 16.69 8.58 16.84 8.75C16.98 8.92 17.08 9.11 17.14 9.32C17.19 9.54 17.22 9.78 17.22 10.05C17.22 10.72 17.03 11.27 16.65 11.68C16.27 12.09 15.71 12.29 14.95 12.29C13.72 12.29 12.78 11.44 12.14 9.74ZM26.71 2.80L26.71 12.60L27.13 12.60L27.13 8.48L28.81 8.48C29.77 8.48 30.54 8.23 31.11 7.73C31.69 7.22 31.98 6.53 31.98 5.64C31.98 4.76 31.69 4.06 31.11 3.56C30.54 3.05 29.77 2.80 28.81 2.80ZM27.13 3.21L28.81 3.21C29.67 3.21 30.34 3.41 30.82 3.83C31.30 4.24 31.54 4.85 31.54 5.64C31.54 6.44 31.30 7.04 30.82 7.45C30.34 7.87 29.67 8.08 28.81 8.08L27.13 8.08ZM41.36 7.48L45.70 7.48L45.70 7.08L41.36 7.08L41.36 3.21L45.98 3.21L45.98 2.80L40.94 2.80L40.94 12.60L45.98 12.60L45.98 12.19L41.36 12.19ZM55.26 7.70C55.26 6.33 55.64 5.22 56.40 4.38C57.16 3.53 58.17 3.11 59.42 3.11C60.61 3.11 61.66 3.54 62.57 4.41L62.57 3.81C61.72 3.06 60.67 2.69 59.42 2.69C58.06 2.69 56.95 3.16 56.09 4.09C55.23 5.03 54.80 6.23 54.80 7.70C54.80 9.17 55.23 10.37 56.09 11.30C56.95 12.24 58.06 12.71 59.42 12.71C60.67 12.71 61.72 12.34 62.57 11.59L62.57 11.03C61.70 11.87 60.65 12.29 59.42 12.29C58.17 12.29 57.16 11.87 56.40 11.03C55.64 10.18 55.26 9.07 55.26 7.70ZM71.88 2.80L71.88 12.60L72.30 12.60L72.30 2.80ZM84.97 2.45L80.70 12.60L81.19 12.60L82.46 9.52L87.47 9.52L88.75 12.60L89.24 12.60ZM84.97 3.50L87.28 9.07L82.66 9.07ZM97.71 2.80L97.71 12.60L102.19 12.60L102.19 12.19L98.13 12.19L98.13 2.80ZM122.35 2.80ZM121.93 2.80L121.93 12.60L122.35 12.60L122.35 8.48L123.90 8.48L127.02 12.60L127.57 12.60L124.38 8.47C125.27 8.41 125.99 8.15 126.52 7.67C127.06 7.20 127.33 6.52 127.33 5.64C127.33 4.71 127.03 4.00 126.42 3.52C125.81 3.04 125.02 2.80 124.03 2.80ZM122.35 3.21L124.03 3.21C124.89 3.21 125.59 3.41 126.11 3.83C126.63 4.24 126.90 4.85 126.90 5.64C126.90 6.44 126.63 7.04 126.11 7.45C125.59 7.87 124.89 8.08 124.03 8.08L122.35 8.08ZM136.39 7.48L140.73 7.48L140.73 7.08L136.39 7.08L136.39 3.21L141.01 3.21L141.01 2.80L135.97 2.80L135.97 12.60L141.01 12.60L141.01 12.19L136.39 12.19ZM150.07 9.74L149.69 9.90C150.31 11.77 151.36 12.71 152.84 12.71C153.75 12.71 154.44 12.45 154.91 11.93C155.38 11.41 155.61 10.77 155.61 10.01C155.61 9.66 155.55 9.35 155.43 9.06C155.32 8.78 155.19 8.55 155.04 8.37C154.90 8.19 154.70 8.02 154.43 7.86C154.17 7.70 153.96 7.58 153.80 7.50C153.63 7.43 153.41 7.34 153.13 7.22C153.09 7.21 152.98 7.16 152.78 7.08C152.59 7.01 152.46 6.96 152.42 6.94C152.37 6.91 152.26 6.87 152.10 6.80C151.93 6.73 151.82 6.67 151.77 6.64C151.72 6.60 151.62 6.54 151.49 6.45C151.36 6.37 151.27 6.30 151.23 6.24C151.18 6.18 151.12 6.10 151.03 6.00C150.95 5.90 150.89 5.80 150.86 5.70C150.82 5.61 150.79 5.50 150.77 5.38C150.74 5.25 150.72 5.12 150.72 4.98C150.72 4.41 150.92 3.95 151.32 3.62C151.72 3.29 152.21 3.12 152.80 3.12C153.93 3.12 154.71 3.77 155.15 5.07L155.55 4.90C155.35 4.23 155.01 3.69 154.55 3.29C154.08 2.89 153.50 2.69 152.81 2.69C152.12 2.69 151.52 2.90 151.01 3.33C150.50 3.76 150.25 4.33 150.25 5.04C150.25 5.39 150.32 5.71 150.46 5.99C150.61 6.27 150.82 6.51 151.11 6.71C151.39 6.91 151.65 7.07 151.88 7.17C152.11 7.28 152.40 7.41 152.77 7.55C153.05 7.65 153.24 7.72 153.34 7.77C153.44 7.82 153.62 7.90 153.86 8.02C154.10 8.13 154.28 8.24 154.38 8.34C154.49 8.45 154.62 8.58 154.76 8.75C154.91 8.92 155.01 9.11 155.06 9.32C155.12 9.54 155.15 9.78 155.15 10.05C155.15 10.72 154.96 11.27 154.58 11.68C154.20 12.09 153.64 12.29 152.88 12.29C151.65 12.29 150.71 11.44 150.07 9.74ZM164.57 2.80L164.57 9.24C164.57 10.29 164.85 11.13 165.42 11.77C165.99 12.42 166.75 12.74 167.69 12.74C168.63 12.74 169.39 12.42 169.96 11.77C170.53 11.13 170.81 10.29 170.81 9.24L170.81 2.80L170.39 2.80L170.39 9.24C170.39 10.17 170.14 10.92 169.63 11.47C169.12 12.02 168.48 12.29 167.69 12.29C166.91 12.29 166.26 12.02 165.75 11.47C165.24 10.92 164.99 10.17 164.99 9.24L164.99 2.80ZM180.26 2.80L180.26 12.60L184.74 12.60L184.74 12.19L180.68 12.19L180.68 2.80ZM191.18 3.21L193.70 3.21L193.70 12.60L194.12 12.60L194.12 3.21L196.64 3.21L196.64 2.80L191.18 2.80ZM204.86 9.74L204.48 9.90C205.11 11.77 206.16 12.71 207.63 12.71C208.55 12.71 209.24 12.45 209.71 11.93C210.17 11.41 210.41 10.77 210.41 10.01C210.41 9.66 210.35 9.35 210.23 9.06C210.11 8.78 209.98 8.55 209.84 8.37C209.69 8.19 209.49 8.02 209.23 7.86C208.97 7.70 208.76 7.58 208.59 7.50C208.43 7.43 208.21 7.34 207.93 7.22C207.89 7.21 207.77 7.16 207.58 7.08C207.38 7.01 207.26 6.96 207.21 6.94C207.17 6.91 207.06 6.87 206.89 6.80C206.72 6.73 206.61 6.67 206.56 6.64C206.51 6.60 206.42 6.54 206.29 6.45C206.16 6.37 206.07 6.30 206.02 6.24C205.98 6.18 205.91 6.10 205.83 6.00C205.74 5.90 205.69 5.80 205.65 5.70C205.62 5.61 205.59 5.50 205.56 5.38C205.53 5.25 205.52 5.12 205.52 4.98C205.52 4.41 205.72 3.95 206.12 3.62C206.51 3.29 207.00 3.12 207.59 3.12C208.72 3.12 209.51 3.77 209.94 5.07L210.35 4.90C210.14 4.23 209.81 3.69 209.34 3.29C208.88 2.89 208.30 2.69 207.61 2.69C206.92 2.69 206.32 2.90 205.81 3.33C205.30 3.76 205.04 4.33 205.04 5.04C205.04 5.39 205.12 5.71 205.26 5.99C205.41 6.27 205.62 6.51 205.91 6.71C206.19 6.91 206.45 7.07 206.68 7.17C206.90 7.28 207.20 7.41 207.56 7.55C207.84 7.65 208.04 7.72 208.14 7.77C208.24 7.82 208.41 7.90 208.66 8.02C208.90 8.13 209.07 8.24 209.18 8.34C209.29 8.45 209.41 8.58 209.56 8.75C209.70 8.92 209.80 9.11 209.86 9.32C209.92 9.54 209.94 9.78 209.94 10.05C209.94 10.72 209.75 11.27 209.38 11.68C209.00 12.09 208.43 12.29 207.68 12.29C206.44 12.29 205.51 11.44 204.86 9.74ZM231.06 2.80ZM230.64 2.80L230.64 12.60L231.06 12.60L231.06 8.48L232.61 8.48L235.73 12.60L236.28 12.60L233.09 8.47C233.98 8.41 234.70 8.15 235.24 7.67C235.77 7.20 236.04 6.52 236.04 5.64C236.04 4.71 235.74 4.00 235.13 3.52C234.52 3.04 233.73 2.80 232.74 2.80ZM231.06 3.21L232.74 3.21C233.60 3.21 234.30 3.41 234.82 3.83C235.34 4.24 235.61 4.85 235.61 5.64C235.61 6.44 235.34 7.04 234.82 7.45C234.30 7.87 233.60 8.08 232.74 8.08L231.06 8.08ZM245.10 7.48L249.44 7.48L249.44 7.08L245.10 7.08L245.10 3.21L249.72 3.21L249.72 2.80L244.68 2.80L244.68 12.60L249.72 12.60L249.72 12.19L245.10 12.19ZM258.54 7.70C258.54 9.16 258.98 10.36 259.87 11.30C260.77 12.24 261.89 12.71 263.26 12.71C264.49 12.71 265.54 12.31 266.42 11.51L267.58 12.60L268.14 12.60L266.69 11.24C267.54 10.29 267.97 9.11 267.97 7.70C267.97 6.24 267.53 5.04 266.64 4.10C265.75 3.16 264.62 2.69 263.26 2.69C261.89 2.69 260.77 3.16 259.87 4.10C258.98 5.04 258.54 6.24 258.54 7.70ZM263.10 8.40L266.11 11.21C265.33 11.94 264.38 12.31 263.26 12.31C262.01 12.31 260.99 11.87 260.18 10.99C259.36 10.11 258.96 9.02 258.96 7.70C258.96 6.38 259.36 5.29 260.18 4.41C260.99 3.53 262.01 3.09 263.26 3.09C264.50 3.09 265.52 3.53 266.34 4.41C267.15 5.29 267.55 6.38 267.55 7.70C267.55 8.99 267.16 10.07 266.38 10.95L263.66 8.40ZM276.82 2.80L276.82 9.24C276.82 10.29 277.11 11.13 277.68 11.77C278.25 12.42 279.00 12.74 279.94 12.74C280.89 12.74 281.64 12.42 282.21 11.77C282.78 11.13 283.07 10.29 283.07 9.24L283.07 2.80L282.65 2.80L282.65 9.24C282.65 10.17 282.39 10.92 281.88 11.47C281.37 12.02 280.73 12.29 279.94 12.29C279.16 12.29 278.51 12.02 278.00 11.47C277.50 10.92 277.24 10.17 277.24 9.24L277.24 2.80ZM292.45 2.80L292.45 12.60L292.87 12.60L292.87 2.80ZM302.74 2.80ZM302.32 2.80L302.32 12.60L302.74 12.60L302.74 8.48L304.29 8.48L307.41 12.60L307.96 12.60L304.77 8.47C305.66 8.41 306.38 8.15 306.91 7.67C307.45 7.20 307.72 6.52 307.72 5.64C307.72 4.71 307.42 4.00 306.81 3.52C306.20 3.04 305.41 2.80 304.42 2.80ZM302.74 3.21L304.42 3.21C305.28 3.21 305.98 3.41 306.50 3.83C307.02 4.24 307.29 4.85 307.29 5.64C307.29 6.44 307.02 7.04 306.50 7.45C305.98 7.87 305.28 8.08 304.42 8.08L302.74 8.08ZM316.78 7.48L321.12 7.48L321.12 7.08L316.78 7.08L316.78 3.21L321.40 3.21L321.40 2.80L316.36 2.80L316.36 12.60L321.40 12.60L321.40 12.19L316.78 12.19ZM341.66 9.74L341.28 9.90C341.90 11.77 342.95 12.71 344.43 12.71C345.34 12.71 346.03 12.45 346.50 11.93C346.97 11.41 347.20 10.77 347.20 10.01C347.20 9.66 347.14 9.35 347.02 9.06C346.91 8.78 346.78 8.55 346.63 8.37C346.49 8.19 346.29 8.02 346.02 7.86C345.76 7.70 345.55 7.58 345.39 7.50C345.22 7.43 345.00 7.34 344.72 7.22C344.68 7.21 344.57 7.16 344.37 7.08C344.18 7.01 344.05 6.96 344.01 6.94C343.96 6.91 343.85 6.87 343.69 6.80C343.52 6.73 343.41 6.67 343.36 6.64C343.31 6.60 343.21 6.54 343.08 6.45C342.95 6.37 342.86 6.30 342.82 6.24C342.77 6.18 342.71 6.10 342.62 6.00C342.54 5.90 342.48 5.80 342.45 5.70C342.41 5.61 342.38 5.50 342.36 5.38C342.33 5.25 342.31 5.12 342.31 4.98C342.31 4.41 342.51 3.95 342.91 3.62C343.31 3.29 343.80 3.12 344.39 3.12C345.52 3.12 346.30 3.77 346.74 5.07L347.14 4.90C346.94 4.23 346.60 3.69 346.14 3.29C345.67 2.89 345.09 2.69 344.40 2.69C343.71 2.69 343.11 2.90 342.60 3.33C342.09 3.76 341.84 4.33 341.84 5.04C341.84 5.39 341.91 5.71 342.05 5.99C342.20 6.27 342.41 6.51 342.70 6.71C342.98 6.91 343.24 7.07 343.47 7.17C343.70 7.28 343.99 7.41 344.36 7.55C344.64 7.65 344.83 7.72 344.93 7.77C345.03 7.82 345.21 7.90 345.45 8.02C345.69 8.13 345.87 8.24 345.97 8.34C346.08 8.45 346.21 8.58 346.35 8.75C346.50 8.92 346.60 9.11 346.65 9.32C346.71 9.54 346.74 9.78 346.74 10.05C346.74 10.72 346.55 11.27 346.17 11.68C345.79 12.09 345.23 12.29 344.47 12.29C343.24 12.29 342.30 11.44 341.66 9.74ZM356.23 2.80L356.23 12.60L356.65 12.60L356.65 8.48L358.33 8.48C359.29 8.48 360.06 8.23 360.63 7.73C361.21 7.22 361.49 6.53 361.49 5.64C361.49 4.76 361.21 4.06 360.63 3.56C360.06 3.05 359.29 2.80 358.33 2.80ZM356.65 3.21L358.33 3.21C359.19 3.21 359.86 3.41 360.34 3.83C360.82 4.24 361.06 4.85 361.06 5.64C361.06 6.44 360.82 7.04 360.34 7.45C359.86 7.87 359.19 8.08 358.33 8.08L356.65 8.08ZM370.87 7.48L375.21 7.48L375.21 7.08L370.87 7.08L370.87 3.21L375.49 3.21L375.49 2.80L370.45 2.80L370.45 12.60L375.49 12.60L375.49 12.19L370.87 12.19ZM384.78 7.70C384.78 6.33 385.16 5.22 385.92 4.38C386.68 3.53 387.68 3.11 388.93 3.11C390.13 3.11 391.18 3.54 392.08 4.41L392.08 3.81C391.23 3.06 390.18 2.69 388.93 2.69C387.58 2.69 386.47 3.16 385.61 4.09C384.75 5.03 384.31 6.23 384.31 7.70C384.31 9.17 384.75 10.37 385.61 11.30C386.47 12.24 387.58 12.71 388.93 12.71C390.18 12.71 391.23 12.34 392.08 11.59L392.08 11.03C391.22 11.87 390.17 12.29 388.93 12.29C387.68 12.29 386.68 11.87 385.92 11.03C385.16 10.18 384.78 9.07 384.78 7.70ZM401.39 2.80L401.39 12.60L401.81 12.60L401.81 2.80ZM414.48 2.45L410.21 12.60L410.70 12.60L411.98 9.52L416.99 9.52L418.26 12.60L418.75 12.60ZM414.48 3.50L416.79 9.07L412.17 9.07ZM427.22 2.80L427.22 12.60L431.70 12.60L431.70 12.19L427.64 12.19L427.64 2.80ZM451.86 7.48L456.20 7.48L456.20 7.08L451.86 7.08L451.86 3.21L456.48 3.21L456.48 2.80L451.44 2.80L451.44 12.60L456.48 12.60L456.48 12.19L451.86 12.19ZM466.28 7.64L470.20 7.64L470.20 7.24L466.28 7.24L466.28 3.21L470.34 3.21L470.34 2.80L465.86 2.80L465.86 12.60L466.28 12.60ZM479.86 7.64L483.78 7.64L483.78 7.24L479.86 7.24L479.86 3.21L483.92 3.21L483.92 2.80L479.44 2.80L479.44 12.60L479.86 12.60ZM492.88 7.70C492.88 6.38 493.29 5.29 494.10 4.41C494.91 3.53 495.94 3.09 497.18 3.09C498.42 3.09 499.45 3.53 500.26 4.41C501.07 5.29 501.48 6.38 501.48 7.70C501.48 9.02 501.07 10.11 500.26 10.99C499.45 11.87 498.42 12.31 497.18 12.31C495.94 12.31 494.91 11.87 494.10 10.99C493.29 10.11 492.88 9.02 492.88 7.70ZM492.46 7.70C492.46 9.16 492.91 10.36 493.80 11.30C494.69 12.24 495.82 12.71 497.18 12.71C498.54 12.71 499.67 12.24 500.56 11.30C501.45 10.36 501.90 9.16 501.90 7.70C501.90 6.24 501.45 5.04 500.56 4.10C499.67 3.16 498.54 2.69 497.18 2.69C495.82 2.69 494.69 3.16 493.80 4.10C492.91 5.04 492.46 6.24 492.46 7.70ZM511.28 2.80ZM510.86 2.80L510.86 12.60L511.28 12.60L511.28 8.48L512.83 8.48L515.96 12.60L516.50 12.60L513.31 8.47C514.21 8.41 514.92 8.15 515.46 7.67C516.00 7.20 516.26 6.52 516.26 5.64C516.26 4.71 515.96 4.00 515.35 3.52C514.75 3.04 513.95 2.80 512.96 2.80ZM511.28 3.21L512.96 3.21C513.83 3.21 514.52 3.41 515.05 3.83C515.57 4.24 515.83 4.85 515.83 5.64C515.83 6.44 515.57 7.04 515.05 7.45C514.52 7.87 513.83 8.08 512.96 8.08L511.28 8.08ZM523.92 3.21L526.44 3.21L526.44 12.60L526.86 12.60L526.86 3.21L529.38 3.21L529.38 2.80L523.92 2.80ZM537.60 9.74L537.22 9.90C537.85 11.77 538.90 12.71 540.37 12.71C541.29 12.71 541.98 12.45 542.44 11.93C542.91 11.41 543.14 10.77 543.14 10.01C543.14 9.66 543.09 9.35 542.97 9.06C542.85 8.78 542.72 8.55 542.58 8.37C542.43 8.19 542.23 8.02 541.97 7.86C541.71 7.70 541.49 7.58 541.33 7.50C541.17 7.43 540.95 7.34 540.67 7.22C540.63 7.21 540.51 7.16 540.32 7.08C540.12 7.01 540.00 6.96 539.95 6.94C539.91 6.91 539.80 6.87 539.63 6.80C539.46 6.73 539.35 6.67 539.30 6.64C539.25 6.60 539.16 6.54 539.03 6.45C538.90 6.37 538.81 6.30 538.76 6.24C538.72 6.18 538.65 6.10 538.57 6.00C538.48 5.90 538.42 5.80 538.39 5.70C538.36 5.61 538.33 5.50 538.30 5.38C538.27 5.25 538.26 5.12 538.26 4.98C538.26 4.41 538.46 3.95 538.85 3.62C539.25 3.29 539.74 3.12 540.33 3.12C541.46 3.12 542.24 3.77 542.68 5.07L543.09 4.90C542.88 4.23 542.55 3.69 542.08 3.29C541.61 2.89 541.03 2.69 540.34 2.69C539.65 2.69 539.05 2.90 538.54 3.33C538.04 3.76 537.78 4.33 537.78 5.04C537.78 5.39 537.85 5.71 538.00 5.99C538.14 6.27 538.36 6.51 538.64 6.71C538.93 6.91 539.18 7.07 539.41 7.17C539.64 7.28 539.94 7.41 540.30 7.55C540.58 7.65 540.77 7.72 540.88 7.77C540.98 7.82 541.15 7.90 541.39 8.02C541.64 8.13 541.81 8.24 541.92 8.34C542.03 8.45 542.15 8.58 542.30 8.75C542.44 8.92 542.54 9.11 542.60 9.32C542.65 9.54 542.68 9.78 542.68 10.05C542.68 10.72 542.49 11.27 542.11 11.68C541.74 12.09 541.17 12.29 540.41 12.29C539.18 12.29 538.24 11.44 537.60 9.74Z"></path></g></svg>