<svg data-v-423bf9ae="" xmlns="http://www.w3.org/2000/svg" viewBox="0 0 233.2489319035227 60" class="font"><!----><!----><!----><g data-v-423bf9ae="" id="e75fc235-2cb4-4844-a951-f1b0a2134faf" fill="white" transform="matrix(5.9055118997155125,0,0,5.9055118997155125,-5.510908397789123,-19.19291367407542)"><path d="M11.09 5.71L11.90 13.01C11.91 13.17 11.96 13.23 12.11 13.23L12.80 13.23C12.96 13.23 13.02 13.16 13.01 13.01L11.83 3.37C11.82 3.28 11.80 3.25 11.70 3.25L11.62 3.25C11.56 3.25 11.52 3.26 11.45 3.37L6.97 11.84L2.49 3.37C2.42 3.26 2.38 3.25 2.32 3.25L2.24 3.25C2.14 3.25 2.13 3.28 2.11 3.37L0.94 13.01C0.91 13.16 0.98 13.23 1.13 13.23L1.82 13.23C1.99 13.23 2.02 13.17 2.04 13.01L2.87 5.73L6.65 13.19C6.75 13.33 6.80 13.41 6.92 13.41L7.03 13.41C7.14 13.41 7.21 13.33 7.28 13.19ZM19.63 4.23C20.76 4.23 21.88 4.80 22.53 5.45C22.67 5.57 22.75 5.56 22.85 5.45L23.27 4.98C23.38 4.86 23.42 4.80 23.30 4.68C22.36 3.79 20.99 3.25 19.63 3.25C16.87 3.25 14.64 5.54 14.64 8.33C14.64 11.12 16.87 13.41 19.63 13.41C21 13.41 22.47 12.85 23.39 11.94C23.55 11.79 23.62 11.66 23.62 11.44L23.62 8.34C23.62 8.19 23.58 8.12 23.41 8.12L19.84 8.12C19.67 8.12 19.61 8.18 19.61 8.34L19.61 8.88C19.61 9.04 19.67 9.09 19.84 9.09L22.51 9.09L22.51 11.35C21.84 11.96 20.86 12.43 19.63 12.43C17.44 12.43 15.76 10.43 15.76 8.33C15.76 6.22 17.44 4.23 19.63 4.23ZM29.50 13.01C29.50 13.17 29.55 13.23 29.72 13.23L30.39 13.23C30.56 13.23 30.60 13.17 30.60 13.01L30.60 3.65C30.60 3.49 30.56 3.43 30.39 3.43L29.72 3.43C29.55 3.43 29.50 3.49 29.50 3.65ZM32.41 3.43C32.24 3.43 32.19 3.49 32.19 3.65L32.19 4.21C32.19 4.38 32.23 4.44 32.41 4.44L35.76 4.44L35.76 13.01C35.76 13.17 35.80 13.23 35.98 13.23L36.65 13.23C36.82 13.23 36.86 13.17 36.86 13.01L36.86 4.44L40.22 4.44C40.39 4.44 40.43 4.38 40.43 4.21L40.43 3.65C40.43 3.49 40.40 3.43 40.22 3.43Z"></path></g><!----><!----></svg>